<svg width="12" height="12" viewBox="0 0 12 12" fill="none" xmlns="http://www.w3.org/2000/svg">
<path d="M6.00001 0.458374C6.10831 0.458432 6.21446 0.488639 6.30656 0.545613C6.39867 0.602587 6.4731 0.684077 6.52151 0.780957L8.02651 3.78979L11.334 4.27046C11.4417 4.2861 11.543 4.33159 11.6262 4.40177C11.7094 4.47195 11.7714 4.56402 11.805 4.66757C11.8386 4.77112 11.8426 4.88201 11.8165 4.9877C11.7903 5.09339 11.7352 5.18966 11.6572 5.26562L9.24976 7.61296L9.79109 10.9228C9.80848 11.0299 9.79563 11.1398 9.75399 11.2401C9.71235 11.3403 9.64356 11.4269 9.55537 11.4902C9.46717 11.5535 9.36307 11.5909 9.25477 11.5983C9.14647 11.6056 9.03827 11.5826 8.94234 11.5318L6.00001 9.97079L3.05767 11.5318C2.96174 11.5826 2.85354 11.6056 2.74524 11.5983C2.63694 11.5909 2.53284 11.5535 2.44465 11.4902C2.35645 11.4269 2.28767 11.3403 2.24602 11.2401C2.20438 11.1398 2.19153 11.0299 2.20892 10.9228L2.75026 7.61296L0.34284 5.26562C0.264846 5.18966 0.209667 5.09339 0.183544 4.9877C0.157422 4.88201 0.161398 4.77112 0.195024 4.66757C0.22865 4.56402 0.290584 4.47195 0.373818 4.40177C0.457052 4.33159 0.558265 4.2861 0.666006 4.27046L3.97351 3.78979L5.47851 0.780957C5.52692 0.684077 5.60134 0.602587 5.69345 0.545613C5.78556 0.488639 5.8917 0.458432 6.00001 0.458374ZM6.00001 2.34604L4.88117 4.58371C4.83918 4.66786 4.77747 4.74062 4.70129 4.79577C4.62511 4.85092 4.53673 4.88684 4.44367 4.90046L2.00301 5.25512L3.78217 6.98937C3.84941 7.05488 3.89984 7.13564 3.92919 7.22481C3.95854 7.31397 3.96594 7.40891 3.95076 7.50154L3.55001 9.94979L5.72642 8.79479C5.81068 8.75005 5.90461 8.72666 6.00001 8.72666C6.0954 8.72666 6.18934 8.75005 6.27359 8.79479L8.45001 9.94979L8.04926 7.50154C8.03417 7.409 8.04162 7.31418 8.07096 7.22513C8.10031 7.13607 8.15069 7.0554 8.21784 6.98996L9.99701 5.25512L7.55692 4.90046C7.46387 4.88684 7.37548 4.85092 7.2993 4.79577C7.22313 4.74062 7.16141 4.66786 7.11942 4.58371L6.00001 2.34604Z" fill="#FFA629"/>
</svg>
