<svg width="284" height="28" viewBox="0 0 284 28" fill="none" xmlns="http://www.w3.org/2000/svg">
<path d="M17.6055 3.99609V17.2578C17.6055 17.5312 17.5078 17.7656 17.3125 17.9609C17.1302 18.1432 16.9023 18.2344 16.6289 18.2344C16.3555 18.2344 16.1276 18.1367 15.9453 17.9414L1.98047 3.99609V27.0234C1.98047 27.2969 1.88281 27.5312 1.6875 27.7266C1.50521 27.9089 1.27734 28 1.00391 28C0.730469 28 0.496094 27.9089 0.300781 27.7266C0.11849 27.5312 0.0273438 27.2969 0.0273438 27.0234V1.63281C0.0273438 1.35938 0.11849 1.13151 0.300781 0.949219C0.496094 0.753906 0.730469 0.65625 1.00391 0.65625C1.27734 0.65625 6.16016 5.40234 15.6523 14.8945V1.63281C15.6523 1.35938 15.7435 1.13151 15.9258 0.949219C16.1211 0.753906 16.3555 0.65625 16.6289 0.65625C16.9023 0.65625 17.1367 0.747396 17.332 0.929688L42.7031 26.3203C42.8984 26.5156 42.9961 26.75 42.9961 27.0234C42.9961 27.2969 42.8984 27.5312 42.7031 27.7266C42.5208 27.9089 42.293 28 42.0195 28C41.7461 28 41.5117 27.9023 41.3164 27.707L17.6055 3.99609ZM21.5117 13.7617V27.0234C21.5117 27.2969 21.4141 27.5312 21.2188 27.7266C21.0365 27.9089 20.8086 28 20.5352 28C20.2617 28 20.0339 27.9023 19.8516 27.707L5.88672 13.7617V27.0234C5.88672 27.2969 5.78906 27.5312 5.59375 27.7266C5.41146 27.9089 5.18359 28 4.91016 28C4.63672 28 4.40234 27.9089 4.20703 27.7266C4.02474 27.5312 3.93359 27.2969 3.93359 27.0234V11.3984C3.93359 11.125 4.03125 10.8906 4.22656 10.6953C4.40885 10.513 4.63672 10.4219 4.91016 10.4219C5.18359 10.4219 5.41797 10.513 5.61328 10.6953L19.5586 24.6602V11.3984C19.5586 11.125 19.6562 10.8906 19.8516 10.6953C20.0339 10.513 20.2617 10.4219 20.5352 10.4219C20.8086 10.4219 21.043 10.513 21.2383 10.6953L36.8438 26.3203C37.0391 26.5156 37.1367 26.75 37.1367 27.0234C37.1367 27.2969 37.0391 27.5312 36.8438 27.7266C36.6615 27.9089 36.4336 28 36.1602 28C35.8867 28 35.6523 27.9023 35.457 27.707L21.5117 13.7617ZM53.8555 28C50.0794 28 46.8568 26.6654 44.1875 23.9961C41.5182 21.3268 40.1836 18.1042 40.1836 14.3281C40.1836 10.5521 41.5182 7.32943 44.1875 4.66016C46.8568 1.99089 50.0794 0.65625 53.8555 0.65625C57.6315 0.65625 60.8542 1.99089 63.5234 4.66016C66.1927 7.32943 67.5273 10.5521 67.5273 14.3281C67.5273 18.1042 66.1927 21.3268 63.5234 23.9961C60.8542 26.6654 57.6315 28 53.8555 28ZM53.8555 26.0469C57.0977 26.0469 59.8581 24.9076 62.1367 22.6289C64.4284 20.3372 65.5742 17.5703 65.5742 14.3281C65.5742 11.0859 64.4284 8.32552 62.1367 6.04688C59.8581 3.75521 57.0977 2.60938 53.8555 2.60938C50.6133 2.60938 47.8464 3.75521 45.5547 6.04688C43.276 8.32552 42.1367 11.0859 42.1367 14.3281C42.1367 17.5703 43.276 20.3372 45.5547 22.6289C47.8464 24.9076 50.6133 26.0469 53.8555 26.0469ZM53.8555 24.0938C51.1602 24.0938 48.8555 23.1432 46.9414 21.2422C45.0404 19.3281 44.0898 17.0234 44.0898 14.3281C44.0898 11.6328 45.0404 9.33464 46.9414 7.43359C48.8555 5.51953 51.1602 4.5625 53.8555 4.5625C56.5508 4.5625 58.849 5.51953 60.75 7.43359C62.6641 9.33464 63.6211 11.6328 63.6211 14.3281C63.6211 17.0234 62.6641 19.3281 60.75 21.2422C58.849 23.1432 56.5508 24.0938 53.8555 24.0938ZM53.8555 22.1406C56.0169 22.1406 57.8594 21.3789 59.3828 19.8555C60.9062 18.332 61.668 16.4896 61.668 14.3281C61.668 12.1667 60.9062 10.3242 59.3828 8.80078C57.8594 7.27734 56.0169 6.51562 53.8555 6.51562C51.694 6.51562 49.8516 7.27734 48.3281 8.80078C46.8047 10.3242 46.043 12.1667 46.043 14.3281C46.043 16.4896 46.8047 18.332 48.3281 19.8555C49.8516 21.3789 51.694 22.1406 53.8555 22.1406ZM92.625 2.31641L77 17.9609C76.8177 18.1432 76.5898 18.2344 76.3164 18.2344C76.043 18.2344 75.8086 18.1432 75.6133 17.9609C75.431 17.7656 75.3398 17.5312 75.3398 17.2578V1.63281C75.3398 1.35938 75.431 1.13151 75.6133 0.949219C75.8086 0.753906 76.043 0.65625 76.3164 0.65625C76.5898 0.65625 76.8177 0.753906 77 0.949219C77.1953 1.13151 77.293 1.35938 77.293 1.63281V14.8945L91.2383 0.929688C91.4336 0.747396 91.668 0.65625 91.9414 0.65625C92.2148 0.65625 92.4427 0.753906 92.625 0.949219C92.8203 1.13151 92.918 1.35938 92.918 1.63281C92.918 1.90625 92.8203 2.13411 92.625 2.31641ZM73.3867 24.6602L97.0977 0.929688C97.293 0.747396 97.5273 0.65625 97.8008 0.65625C98.0742 0.65625 98.3021 0.753906 98.4844 0.949219C98.6797 1.13151 98.7773 1.35938 98.7773 1.63281C98.7773 1.90625 98.6797 2.13411 98.4844 2.31641L73.0938 27.7266C72.9115 27.9089 72.6836 28 72.4102 28C72.1367 28 71.9089 27.9023 71.7266 27.707C71.5312 27.5247 71.4336 27.2969 71.4336 27.0234V1.63281C71.4336 1.35938 71.5247 1.13151 71.707 0.949219C71.9023 0.753906 72.1367 0.65625 72.4102 0.65625C72.6836 0.65625 72.9115 0.753906 73.0938 0.949219C73.2891 1.13151 73.3867 1.35938 73.3867 1.63281V24.6602ZM104.637 27.0234V1.63281C104.637 1.35938 104.728 1.13151 104.91 0.949219C105.105 0.753906 105.34 0.65625 105.613 0.65625C105.887 0.65625 106.115 0.753906 106.297 0.949219C106.492 1.13151 106.59 1.35938 106.59 1.63281V27.0234C106.59 27.2969 106.492 27.5312 106.297 27.7266C106.115 27.9089 105.887 28 105.613 28C105.34 28 105.105 27.9089 104.91 27.7266C104.728 27.5312 104.637 27.2969 104.637 27.0234ZM102.684 1.63281V27.0234C102.684 27.2969 102.586 27.5312 102.391 27.7266C102.208 27.9089 101.98 28 101.707 28C101.434 28 101.199 27.9089 101.004 27.7266C100.822 27.5312 100.73 27.2969 100.73 27.0234V1.63281C100.73 1.35938 100.822 1.13151 101.004 0.949219C101.199 0.753906 101.434 0.65625 101.707 0.65625C101.98 0.65625 102.208 0.753906 102.391 0.949219C102.586 1.13151 102.684 1.35938 102.684 1.63281ZM112.449 26.0469H127.098C127.371 26.0469 127.599 26.1445 127.781 26.3398C127.977 26.5221 128.074 26.75 128.074 27.0234C128.074 27.2969 127.977 27.5312 127.781 27.7266C127.599 27.9089 127.371 28 127.098 28H111.473C111.199 28 110.965 27.9089 110.77 27.7266C110.587 27.5312 110.496 27.2969 110.496 27.0234V1.63281C110.496 1.35938 110.587 1.13151 110.77 0.949219C110.965 0.753906 111.199 0.65625 111.473 0.65625H127.098C127.371 0.65625 127.599 0.753906 127.781 0.949219C127.977 1.13151 128.074 1.35938 128.074 1.63281C128.074 1.90625 127.977 2.14062 127.781 2.33594C127.599 2.51823 127.371 2.60938 127.098 2.60938H112.449V26.0469ZM115.379 15.3047H127.098C127.371 15.3047 127.599 15.4023 127.781 15.5977C127.977 15.7799 128.074 16.0078 128.074 16.2812C128.074 16.5547 127.977 16.7891 127.781 16.9844C127.599 17.1667 127.371 17.2578 127.098 17.2578H116.355V22.1406H127.098C127.371 22.1406 127.599 22.2383 127.781 22.4336C127.977 22.6159 128.074 22.8438 128.074 23.1172C128.074 23.3906 127.977 23.625 127.781 23.8203C127.599 24.0026 127.371 24.0938 127.098 24.0938H115.379C115.105 24.0938 114.871 24.0026 114.676 23.8203C114.493 23.625 114.402 23.3906 114.402 23.1172V16.2812C114.402 16.0078 114.493 15.7799 114.676 15.5977C114.871 15.4023 115.105 15.3047 115.379 15.3047ZM115.379 4.5625H127.098C127.371 4.5625 127.599 4.66016 127.781 4.85547C127.977 5.03776 128.074 5.26562 128.074 5.53906C128.074 5.8125 127.977 6.04688 127.781 6.24219C127.599 6.42448 127.371 6.51562 127.098 6.51562H116.355V11.3984H127.098C127.371 11.3984 127.599 11.4961 127.781 11.6914C127.977 11.8737 128.074 12.1016 128.074 12.375C128.074 12.6484 127.977 12.8828 127.781 13.0781C127.599 13.2604 127.371 13.3516 127.098 13.3516H115.379C115.105 13.3516 114.871 13.2604 114.676 13.0781C114.493 12.8828 114.402 12.6484 114.402 12.375V5.53906C114.402 5.26562 114.493 5.03776 114.676 4.85547C114.871 4.66016 115.105 4.5625 115.379 4.5625ZM147.762 6.51562V14.3281H153.621C154.702 14.3281 155.62 13.9505 156.375 13.1953C157.143 12.4271 157.527 11.5026 157.527 10.4219C157.527 9.34115 157.143 8.42318 156.375 7.66797C155.62 6.89974 154.702 6.51562 153.621 6.51562H147.762ZM145.809 5.53906C145.809 5.26562 145.9 5.03776 146.082 4.85547C146.277 4.66016 146.512 4.5625 146.785 4.5625H153.621C155.236 4.5625 156.616 5.13542 157.762 6.28125C158.908 7.42708 159.48 8.80729 159.48 10.4219C159.48 12.0365 158.908 13.4167 157.762 14.5625C156.616 15.7083 155.236 16.2812 153.621 16.2812H146.785C146.512 16.2812 146.277 16.1901 146.082 16.0078C145.9 15.8125 145.809 15.5781 145.809 15.3047V5.53906ZM154.949 20.1094L161.16 26.3398C161.342 26.5221 161.434 26.75 161.434 27.0234C161.434 27.2969 161.336 27.5312 161.141 27.7266C160.958 27.9089 160.73 28 160.457 28C160.184 28 159.956 27.9089 159.773 27.7266L151.961 19.8945C151.766 19.7122 151.668 19.4844 151.668 19.2109C151.668 18.9375 151.759 18.7096 151.941 18.5273C152.137 18.332 152.371 18.2344 152.645 18.2344H153.621C155.783 18.2344 157.625 17.4727 159.148 15.9492C160.672 14.4258 161.434 12.5833 161.434 10.4219C161.434 8.26042 160.672 6.41797 159.148 4.89453C157.625 3.37109 155.783 2.60938 153.621 2.60938H143.855V27.0234C143.855 27.2969 143.758 27.5312 143.562 27.7266C143.38 27.9089 143.152 28 142.879 28C142.605 28 142.371 27.9089 142.176 27.7266C141.993 27.5312 141.902 27.2969 141.902 27.0234V1.63281C141.902 1.35938 141.993 1.13151 142.176 0.949219C142.371 0.753906 142.605 0.65625 142.879 0.65625H153.621C156.316 0.65625 158.615 1.61328 160.516 3.52734C162.43 5.42839 163.387 7.72656 163.387 10.4219C163.387 13.1172 162.436 15.4154 160.535 17.3164C158.947 18.9049 157.085 19.8359 154.949 20.1094ZM147.762 21.5547V27.0234C147.762 27.2969 147.664 27.5312 147.469 27.7266C147.286 27.9089 147.059 28 146.785 28C146.512 28 146.277 27.9089 146.082 27.7266C145.9 27.5312 145.809 27.2969 145.809 27.0234V19.2109C145.809 18.9375 145.9 18.7096 146.082 18.5273C146.277 18.332 146.512 18.2344 146.785 18.2344C147.059 18.2344 147.293 18.3255 147.488 18.5078L155.301 26.3398C155.483 26.5221 155.574 26.75 155.574 27.0234C155.574 27.2969 155.477 27.5312 155.281 27.7266C155.099 27.9089 154.871 28 154.598 28C154.324 28 154.096 27.9089 153.914 27.7266L147.762 21.5547ZM180.457 1.63281C180.457 1.35938 180.548 1.13151 180.73 0.949219C180.926 0.753906 181.16 0.65625 181.434 0.65625C181.707 0.65625 181.935 0.753906 182.117 0.949219C182.312 1.13151 182.41 1.35938 182.41 1.63281V18.2344C182.41 19.849 181.837 21.2292 180.691 22.375C179.546 23.5208 178.165 24.0938 176.551 24.0938C174.936 24.0938 173.556 23.5208 172.41 22.375C171.264 21.2292 170.691 19.849 170.691 18.2344V1.63281C170.691 1.35938 170.783 1.13151 170.965 0.949219C171.16 0.753906 171.395 0.65625 171.668 0.65625C171.941 0.65625 172.169 0.753906 172.352 0.949219C172.547 1.13151 172.645 1.35938 172.645 1.63281V18.2344C172.645 19.3151 173.022 20.2396 173.777 21.0078C174.546 21.763 175.47 22.1406 176.551 22.1406C177.632 22.1406 178.549 21.763 179.305 21.0078C180.073 20.2396 180.457 19.3151 180.457 18.2344V1.63281ZM184.363 1.63281C184.363 1.35938 184.454 1.13151 184.637 0.949219C184.832 0.753906 185.066 0.65625 185.34 0.65625C185.613 0.65625 185.841 0.753906 186.023 0.949219C186.219 1.13151 186.316 1.35938 186.316 1.63281V18.2344C186.316 20.9297 185.359 23.2344 183.445 25.1484C181.544 27.0495 179.246 28 176.551 28C173.855 28 171.551 27.0495 169.637 25.1484C167.736 23.2344 166.785 20.9297 166.785 18.2344V1.63281C166.785 1.35938 166.876 1.13151 167.059 0.949219C167.254 0.753906 167.488 0.65625 167.762 0.65625C168.035 0.65625 168.263 0.753906 168.445 0.949219C168.641 1.13151 168.738 1.35938 168.738 1.63281V18.2344C168.738 20.3958 169.5 22.2383 171.023 23.7617C172.547 25.2852 174.389 26.0469 176.551 26.0469C178.712 26.0469 180.555 25.2852 182.078 23.7617C183.602 22.2383 184.363 20.3958 184.363 18.2344V1.63281ZM196.082 13.7422V27.0234C196.082 27.2969 195.984 27.5312 195.789 27.7266C195.607 27.9089 195.379 28 195.105 28C194.832 28 194.598 27.9089 194.402 27.7266C194.22 27.5312 194.129 27.2969 194.129 27.0234V11.3984C194.129 11.125 194.22 10.8971 194.402 10.7148C194.598 10.5195 194.832 10.4219 195.105 10.4219C195.379 10.4219 195.613 10.513 195.809 10.6953L209.754 24.6602V1.63281C209.754 1.35938 209.845 1.13151 210.027 0.949219C210.223 0.753906 210.457 0.65625 210.73 0.65625C211.004 0.65625 211.232 0.753906 211.414 0.949219C211.609 1.13151 211.707 1.35938 211.707 1.63281V27.0234C211.707 27.2969 211.616 27.5247 211.434 27.707C211.238 27.9023 211.01 28 210.75 28C210.464 28 210.229 27.9089 210.047 27.7266L196.082 13.7422ZM192.176 3.97656V27.0234C192.176 27.2969 192.078 27.5312 191.883 27.7266C191.701 27.9089 191.473 28 191.199 28C190.926 28 190.691 27.9089 190.496 27.7266C190.314 27.5312 190.223 27.2969 190.223 27.0234V1.63281C190.223 1.35938 190.314 1.13151 190.496 0.949219C190.691 0.753906 190.926 0.65625 191.199 0.65625C191.473 0.65625 191.707 0.747396 191.902 0.929688L205.848 14.8945V1.63281C205.848 1.35938 205.939 1.13151 206.121 0.949219C206.316 0.753906 206.551 0.65625 206.824 0.65625C207.098 0.65625 207.326 0.753906 207.508 0.949219C207.703 1.13151 207.801 1.35938 207.801 1.63281V17.2578C207.801 17.5312 207.703 17.7656 207.508 17.9609C207.326 18.1432 207.098 18.2344 206.824 18.2344C206.551 18.2344 206.323 18.1432 206.141 17.9609L192.176 3.97656ZM221.473 13.7422V27.0234C221.473 27.2969 221.375 27.5312 221.18 27.7266C220.997 27.9089 220.77 28 220.496 28C220.223 28 219.988 27.9089 219.793 27.7266C219.611 27.5312 219.52 27.2969 219.52 27.0234V11.3984C219.52 11.125 219.611 10.8971 219.793 10.7148C219.988 10.5195 220.223 10.4219 220.496 10.4219C220.77 10.4219 221.004 10.513 221.199 10.6953L235.145 24.6602V1.63281C235.145 1.35938 235.236 1.13151 235.418 0.949219C235.613 0.753906 235.848 0.65625 236.121 0.65625C236.395 0.65625 236.622 0.753906 236.805 0.949219C237 1.13151 237.098 1.35938 237.098 1.63281V27.0234C237.098 27.2969 237.007 27.5247 236.824 27.707C236.629 27.9023 236.401 28 236.141 28C235.854 28 235.62 27.9089 235.438 27.7266L221.473 13.7422ZM217.566 3.97656V27.0234C217.566 27.2969 217.469 27.5312 217.273 27.7266C217.091 27.9089 216.863 28 216.59 28C216.316 28 216.082 27.9089 215.887 27.7266C215.704 27.5312 215.613 27.2969 215.613 27.0234V1.63281C215.613 1.35938 215.704 1.13151 215.887 0.949219C216.082 0.753906 216.316 0.65625 216.59 0.65625C216.863 0.65625 217.098 0.747396 217.293 0.929688L231.238 14.8945V1.63281C231.238 1.35938 231.329 1.13151 231.512 0.949219C231.707 0.753906 231.941 0.65625 232.215 0.65625C232.488 0.65625 232.716 0.753906 232.898 0.949219C233.094 1.13151 233.191 1.35938 233.191 1.63281V17.2578C233.191 17.5312 233.094 17.7656 232.898 17.9609C232.716 18.1432 232.488 18.2344 232.215 18.2344C231.941 18.2344 231.714 18.1432 231.531 17.9609L217.566 3.97656ZM242.957 26.0469H257.605C257.879 26.0469 258.107 26.1445 258.289 26.3398C258.484 26.5221 258.582 26.75 258.582 27.0234C258.582 27.2969 258.484 27.5312 258.289 27.7266C258.107 27.9089 257.879 28 257.605 28H241.98C241.707 28 241.473 27.9089 241.277 27.7266C241.095 27.5312 241.004 27.2969 241.004 27.0234V1.63281C241.004 1.35938 241.095 1.13151 241.277 0.949219C241.473 0.753906 241.707 0.65625 241.98 0.65625H257.605C257.879 0.65625 258.107 0.753906 258.289 0.949219C258.484 1.13151 258.582 1.35938 258.582 1.63281C258.582 1.90625 258.484 2.14062 258.289 2.33594C258.107 2.51823 257.879 2.60938 257.605 2.60938H242.957V26.0469ZM245.887 15.3047H257.605C257.879 15.3047 258.107 15.4023 258.289 15.5977C258.484 15.7799 258.582 16.0078 258.582 16.2812C258.582 16.5547 258.484 16.7891 258.289 16.9844C258.107 17.1667 257.879 17.2578 257.605 17.2578H246.863V22.1406H257.605C257.879 22.1406 258.107 22.2383 258.289 22.4336C258.484 22.6159 258.582 22.8438 258.582 23.1172C258.582 23.3906 258.484 23.625 258.289 23.8203C258.107 24.0026 257.879 24.0938 257.605 24.0938H245.887C245.613 24.0938 245.379 24.0026 245.184 23.8203C245.001 23.625 244.91 23.3906 244.91 23.1172V16.2812C244.91 16.0078 245.001 15.7799 245.184 15.5977C245.379 15.4023 245.613 15.3047 245.887 15.3047ZM245.887 4.5625H257.605C257.879 4.5625 258.107 4.66016 258.289 4.85547C258.484 5.03776 258.582 5.26562 258.582 5.53906C258.582 5.8125 258.484 6.04688 258.289 6.24219C258.107 6.42448 257.879 6.51562 257.605 6.51562H246.863V11.3984H257.605C257.879 11.3984 258.107 11.4961 258.289 11.6914C258.484 11.8737 258.582 12.1016 258.582 12.375C258.582 12.6484 258.484 12.8828 258.289 13.0781C258.107 13.2604 257.879 13.3516 257.605 13.3516H245.887C245.613 13.3516 245.379 13.2604 245.184 13.0781C245.001 12.8828 244.91 12.6484 244.91 12.375V5.53906C244.91 5.26562 245.001 5.03776 245.184 4.85547C245.379 4.66016 245.613 4.5625 245.887 4.5625ZM268.348 6.51562V14.3281H274.207C275.288 14.3281 276.206 13.9505 276.961 13.1953C277.729 12.4271 278.113 11.5026 278.113 10.4219C278.113 9.34115 277.729 8.42318 276.961 7.66797C276.206 6.89974 275.288 6.51562 274.207 6.51562H268.348ZM266.395 5.53906C266.395 5.26562 266.486 5.03776 266.668 4.85547C266.863 4.66016 267.098 4.5625 267.371 4.5625H274.207C275.822 4.5625 277.202 5.13542 278.348 6.28125C279.493 7.42708 280.066 8.80729 280.066 10.4219C280.066 12.0365 279.493 13.4167 278.348 14.5625C277.202 15.7083 275.822 16.2812 274.207 16.2812H267.371C267.098 16.2812 266.863 16.1901 266.668 16.0078C266.486 15.8125 266.395 15.5781 266.395 15.3047V5.53906ZM275.535 20.1094L281.746 26.3398C281.928 26.5221 282.02 26.75 282.02 27.0234C282.02 27.2969 281.922 27.5312 281.727 27.7266C281.544 27.9089 281.316 28 281.043 28C280.77 28 280.542 27.9089 280.359 27.7266L272.547 19.8945C272.352 19.7122 272.254 19.4844 272.254 19.2109C272.254 18.9375 272.345 18.7096 272.527 18.5273C272.723 18.332 272.957 18.2344 273.23 18.2344H274.207C276.368 18.2344 278.211 17.4727 279.734 15.9492C281.258 14.4258 282.02 12.5833 282.02 10.4219C282.02 8.26042 281.258 6.41797 279.734 4.89453C278.211 3.37109 276.368 2.60938 274.207 2.60938H264.441V27.0234C264.441 27.2969 264.344 27.5312 264.148 27.7266C263.966 27.9089 263.738 28 263.465 28C263.191 28 262.957 27.9089 262.762 27.7266C262.579 27.5312 262.488 27.2969 262.488 27.0234V1.63281C262.488 1.35938 262.579 1.13151 262.762 0.949219C262.957 0.753906 263.191 0.65625 263.465 0.65625H274.207C276.902 0.65625 279.201 1.61328 281.102 3.52734C283.016 5.42839 283.973 7.72656 283.973 10.4219C283.973 13.1172 283.022 15.4154 281.121 17.3164C279.533 18.9049 277.671 19.8359 275.535 20.1094ZM268.348 21.5547V27.0234C268.348 27.2969 268.25 27.5312 268.055 27.7266C267.872 27.9089 267.645 28 267.371 28C267.098 28 266.863 27.9089 266.668 27.7266C266.486 27.5312 266.395 27.2969 266.395 27.0234V19.2109C266.395 18.9375 266.486 18.7096 266.668 18.5273C266.863 18.332 267.098 18.2344 267.371 18.2344C267.645 18.2344 267.879 18.3255 268.074 18.5078L275.887 26.3398C276.069 26.5221 276.16 26.75 276.16 27.0234C276.16 27.2969 276.062 27.5312 275.867 27.7266C275.685 27.9089 275.457 28 275.184 28C274.91 28 274.682 27.9089 274.5 27.7266L268.348 21.5547Z" fill="#2696D2"/>
</svg>
